# xmcd
#
# Track frame offsets:
#  150
#  18888
#  32809
#  43500
#  56797
#  69492
#  83433
#  95899
#  108912
#  121479
#  133299
#  146596
#  159878
#  170830
#  185511
#
# Disc length: 2605 seconds
#
# Revision: 0
# Processed by: cddbd v1.5.1PL2 Copyright (c) Steve Scherf et al.
# Submitted via: Collectorz.com_Music_Collector 6.11
#
DISCID=cf0a2b0f
DTITLE=Various Artist - Forever Blues [CD2)
DYEAR=2001
DGENRE=Blues
TTITLE0=John Lee Hooker - John Lee Hooker-Shake It Baby
TTITLE1=Otis Rush - Otis Rush-I Can't Quit You Baby
TTITLE2=Champion Jack Dupree - Champion Jack Dupree-Shake Baby Shake
TTITLE3=Buddy Guy - Buddy Guy-This Is The End
TTITLE4=Big Joe Williams - Big Joe Williams-Going Back Home
TTITLE5=Pee Wee Crayton - Pee Wee Crayton-The Telephone Is Ringing
TTITLE6=Elmore James - Elmore James-Shake Your Moneymaker
TTITLE7=Junior Parker - Junior Parker-Feelin' Good
TTITLE8=Bobby Parker - Bobby Parker-Blues Get Off My Shoulder
TTITLE9=Jimmy Reed - Jimmy Reed-Bright Lights Big City
TTITLE10=Lightning Hopkins - Lightning Hopkins-Got Me A Louisiana Woman
TTITLE11=Eddie Taylor - Eddie Taylor-Big Town Playboy
TTITLE12=J.B. Lenoir - J.B. Lenoir-Mama Talk To Your Daughter
TTITLE13=Elmore James - Elmore James-Pickin' The Blues
TTITLE14=John Lee Hooker - John Lee Hooker-Dimples
EXTD=
EXTT0=
EXTT1=
EXTT2=
EXTT3=
EXTT4=
EXTT5=
EXTT6=
EXTT7=
EXTT8=
EXTT9=
EXTT10=
EXTT11=
EXTT12=
EXTT13=
EXTT14=
PLAYORDER=
